<?xml version="1.0" encoding="UTF-8" standalone="no"?>
<!-- Created with Inkscape (http://www.inkscape.org/) -->

<svg
   xmlns:dc="http://purl.org/dc/elements/1.1/"
   xmlns:cc="http://creativecommons.org/ns#"
   xmlns:rdf="http://www.w3.org/1999/02/22-rdf-syntax-ns#"
   xmlns:svg="http://www.w3.org/2000/svg"
   xmlns="http://www.w3.org/2000/svg"
   xmlns:sodipodi="http://sodipodi.sourceforge.net/DTD/sodipodi-0.dtd"
   xmlns:inkscape="http://www.inkscape.org/namespaces/inkscape"
   width="25.072689mm"
   height="26.4939mm"
   viewBox="0 0 88.840237 93.876024"
   id="svg4272"
   version="1.1"
   inkscape:version="0.91 r13725"
   sodipodi:docname="logo.svg">
  <defs
     id="defs4274" />
  <sodipodi:namedview
     id="base"
     pagecolor="#ffffff"
     bordercolor="#666666"
     borderopacity="1.0"
     inkscape:pageopacity="0.0"
     inkscape:pageshadow="2"
     inkscape:zoom="0.35"
     inkscape:cx="44.420103"
     inkscape:cy="46.938012"
     inkscape:document-units="px"
     inkscape:current-layer="layer1"
     showgrid="false"
     fit-margin-top="0"
     fit-margin-left="0"
     fit-margin-right="0"
     fit-margin-bottom="0"
     inkscape:window-width="1920"
     inkscape:window-height="1137"
     inkscape:window-x="-8"
     inkscape:window-y="-8"
     inkscape:window-maximized="1" />
  <metadata
     id="metadata4277">
    <rdf:RDF>
      <cc:Work
         rdf:about="">
        <dc:format>image/svg+xml</dc:format>
        <dc:type
           rdf:resource="http://purl.org/dc/dcmitype/StillImage" />
        <dc:title></dc:title>
      </cc:Work>
    </rdf:RDF>
  </metadata>
  <g
     inkscape:label="Layer 1"
     inkscape:groupmode="layer"
     id="layer1"
     transform="translate(327.99153,-485.42419)">
    <g
       style="clip-rule:evenodd;fill-rule:evenodd;image-rendering:optimizeQuality;shape-rendering:geometricPrecision;text-rendering:geometricPrecision"
       id="_272122880"
       transform="matrix(3.5433071,0,0,3.5433071,-1047.5674,29.461868)">
      <path
         style="fill:#990000"
         inkscape:connector-curvature="0"
         d="m 223.299,150.563 c 0.1357,0 0.2714,0 0.4071,0 0.4071,-0.0339 0.8141,-0.0678 1.2212,-0.1017 0.2375,-0.0679 0.4749,-0.1357 0.7124,-0.1696 0.2714,-0.1357 0.5767,-0.2375 0.882,-0.3393 0.1357,-0.1017 0.3053,-0.2035 0.4749,-0.2714 -0.0678,0.1018 -0.1357,0.2036 -0.2035,0.3393 -0.1018,0 -0.3732,0.441 -0.4071,0.5088 -0.2714,0.1357 -0.6445,0.6785 -0.8481,0.882 -0.2035,0.1357 -0.7123,0.5428 -0.8141,0.7463 -0.5767,0.3732 -1.1534,0.7803 -1.6962,1.1873 -0.2714,0.1357 -0.5427,0.2714 -0.8141,0.441 -0.882,0.3393 -1.9336,0.8481 -2.8835,1.0177 -0.0678,0 -0.1357,0.034 -0.2035,0.0679 -0.2375,0.0339 -0.475,0.0678 -0.7124,0.1357 -0.2375,0.0339 -0.4749,0.0678 -0.6785,0.1018 -0.5428,0 -1.0855,0.0339 -1.5944,0.0678 -0.2714,-0.0678 -0.5427,-0.1357 -0.7802,-0.1696 -0.2375,-0.1018 -0.441,-0.2036 -0.6446,-0.3053 -0.2374,-0.2036 -0.4749,-0.4071 -0.7123,-0.5767 -0.1697,0 -0.7803,-0.8481 -0.8142,-0.9159 -0.1357,0 -0.7802,-1.2891 -0.9498,-1.5605 -0.1018,-0.2375 -0.2036,-0.441 -0.3054,-0.6446 -0.1017,-0.441 -0.5427,-1.1533 -0.5427,-1.5943 -0.0339,-0.034 -0.0679,-0.0679 -0.0679,-0.1018 -0.0339,-0.1357 -0.0678,-0.2714 -0.1017,-0.3732 -0.1018,-0.5427 -0.3393,-1.1194 -0.3732,-1.6283 -0.0678,-0.441 -0.2375,-0.9159 -0.2375,-1.3908 -0.0339,0 -0.0339,0 -0.0339,0 -0.0339,-0.1018 -0.0339,-0.2036 -0.0339,-0.3053 0.6445,0.441 1.2891,0.882 1.9675,1.323 0.1018,0.0678 0.2036,0.1357 0.3393,0.2035 0.3392,0.1696 0.6784,0.3392 1.0177,0.5428 0,0.1696 1.764,0.7802 1.764,0.9159 0.2714,0.1018 0.5427,0.2035 0.8481,0.3392 1.2551,0.5089 2.5442,0.9838 3.8672,1.2552 0.1357,0.0339 0.2714,0.0678 0.4071,0.1018 0.5427,0.0678 1.1194,0.1357 1.6961,0.2374 0.2714,0 0.5428,0 0.8481,0.0339 z"
         class="fil1"
         id="_272123336" />
      <path
         style="fill:#990000"
         inkscape:connector-curvature="0"
         d="m 210.069,141.709 c 0,0.1018 0,0.2035 0,0.3053 0,0.4749 0,0.9499 0.0339,1.4248 0,0.2035 0.0339,0.4071 0.0678,0.6106 0.034,0.441 0.0679,0.882 0.1018,1.3569 0.0679,0.441 0.1357,0.882 0.2036,1.323 0.1017,0.1018 0.0339,0.6106 0.1696,0.7463 0,0.1018 0.1357,1.0177 0.2714,1.1534 0.1696,0.8481 0.5427,1.6623 0.8141,2.4764 0.1018,0.2036 0.7124,1.5266 0.8142,1.5266 0,0.0339 0.6106,1.0516 0.7463,1.0516 0,0.1357 0.5767,0.6784 0.7124,0.7463 0,0.1357 0.7802,0.5767 0.9498,0.6445 -1.0516,0 -2.4085,-0.441 -3.4262,-0.7802 -0.7803,-0.3053 -1.7301,-0.7463 -2.4086,-1.2552 -0.0339,0 -0.0678,0 -0.0678,0 -0.4071,-0.3053 -0.8142,-0.6106 -1.1873,-0.882 -0.1018,-0.2374 -0.5428,-0.407 -0.6446,-0.6106 -0.1017,-0.0339 -1.0177,-0.9838 -1.0177,-1.0855 -0.1357,-0.1357 -0.2374,-0.2714 -0.3392,-0.3732 -0.2375,-0.3053 -0.441,-0.6106 -0.6445,-0.882 -0.1697,-0.3053 -0.3393,-0.6106 -0.5089,-0.882 -0.0339,-0.1018 -0.0678,-0.1696 -0.0678,-0.2374 -0.1018,-0.1357 -0.2714,-1.0856 -0.1696,-1.1874 0,-0.441 0.0339,-0.9498 0.2374,-1.3569 0.0679,-0.4071 0.3392,-0.8141 0.4749,-1.1873 0.2375,-0.441 0.5089,-0.882 0.7803,-1.2891 0,-0.0339 0.0339,-0.0339 0.0678,-0.0339 0.1357,-0.2375 0.2714,-0.441 0.441,-0.6445 0.2375,-0.3053 0.4749,-0.6107 0.7463,-0.882 0.2036,-0.2375 0.4071,-0.475 0.6446,-0.6785 0.1696,-0.1696 0.3392,-0.3053 0.5088,-0.441 0.2375,-0.2375 0.4749,-0.4749 0.7463,-0.6785 0,-0.0339 0.0339,-0.0678 0.0679,-0.1017 0.3392,-0.2714 0.6784,-0.5428 1.0177,-0.8142 -0.034,0.2035 -0.034,0.441 -0.034,0.6785 -0.0339,0.2714 -0.0339,0.5767 -0.0339,0.882 -0.0339,0.441 -0.0678,0.882 -0.0678,1.3569 z"
         class="fil1"
         id="_272123264" />
      <path
         style="fill:#990000"
         inkscape:connector-curvature="0"
         d="m 208.949,133.5 c 0,0 0,0 0,0.0339 0.1018,-0.0339 0.2035,-0.0339 0.3392,-0.0339 0.8142,0 1.6962,0.1357 2.4764,0.3053 0.3393,0.0678 0.6785,0.1357 1.0177,0.2035 0.3053,0.0679 0.6446,0.1697 0.9838,0.2714 0.0678,0 0.1357,0.0339 0.2035,0.0679 0.5089,0.1696 1.0177,0.3731 1.5266,0.5767 0.1357,0.0339 0.3053,0.1017 0.4749,0.1696 -0.8141,0.3731 -1.5944,0.7802 -2.3746,1.1873 -0.4071,0.2375 -0.8142,0.4749 -1.2212,0.7124 -0.4411,0.2714 -0.8481,0.5427 -1.2552,0.8141 -0.0339,0 -0.0339,0.034 -0.0339,0.0679 -0.2036,0.1017 -0.4071,0.2374 -0.5767,0.3731 -0.1696,0.1018 -0.3053,0.2036 -0.441,0.3393 -0.3732,0.2714 -0.7124,0.5427 -1.0516,0.848 -0.1018,0.1018 -0.2036,0.2036 -0.3054,0.3054 -0.3392,0.2713 -0.6784,0.5766 -0.9837,0.882 -0.1696,0.1696 -0.3393,0.3392 -0.4749,0.5088 -0.1357,0.1357 -0.2714,0.3053 -0.4071,0.4749 -0.1357,0.0679 -0.6106,0.6106 -0.6106,0.7463 -0.1697,0 -0.7803,1.1195 -0.882,1.2213 -0.2714,0.5088 -0.5428,1.0516 -0.7803,1.5944 -0.1017,0.2374 -0.1696,0.5088 -0.2374,0.7802 -0.034,0.2035 -0.0679,0.441 -0.1018,0.6785 -0.0339,0.2035 -0.0339,0.441 -0.0339,0.6784 -0.4071,-0.9498 -0.7803,-2.0014 -0.916,-3.0191 -0.1357,-0.2714 -0.1696,-0.8142 -0.1696,-1.0856 -0.0339,-0.7802 -0.0339,-1.5265 -0.0339,-2.2728 0,-0.1357 0.0339,-0.2375 0.0678,-0.3393 0.034,-0.3392 0.0679,-0.6784 0.1018,-1.0177 0.1357,-0.5427 0.2714,-1.0855 0.4071,-1.6283 0.1018,-0.3053 0.2035,-0.6106 0.3053,-0.882 0.0678,-0.1696 0.9159,-2.2389 1.2212,-2.2389 0.2036,-0.441 1.357,-1.0516 1.8658,-1.0516 0.0339,-0.0339 0.0679,-0.0679 0.1018,-0.0679 0.3731,-0.0678 0.7463,-0.1357 1.1534,-0.1696 0.2035,-0.0339 0.407,-0.0339 0.6445,-0.0339 z"
         class="fil1"
         id="_272123192" />
      <path
         style="fill:#990000"
         inkscape:connector-curvature="0"
         d="m 222.518,142.015 c 0,0 0,0 0.0339,0 -0.0339,-0.1018 -0.0339,-0.2035 -0.0339,-0.3053 0,-0.3732 0,-0.7124 0,-1.0516 -0.0679,-0.5089 -0.1018,-0.9838 -0.1357,-1.4587 0,-0.1357 0,-0.2375 0,-0.3392 -0.0679,-0.3732 -0.1357,-0.7464 -0.1696,-1.0856 0,-0.5088 -0.2714,-1.1195 -0.2714,-1.6283 -0.0339,-0.1018 -0.0679,-0.1696 -0.0679,-0.2375 -0.1017,-0.407 -0.2035,-0.7802 -0.2713,-1.1534 -0.0679,-0.1696 -0.1357,-0.3392 -0.1697,-0.4749 -0.2374,-0.6106 -0.4749,-1.2212 -0.6784,-1.8318 -0.1018,-0.1696 -0.1696,-0.3393 -0.2375,-0.5089 -0.2374,-0.2374 -0.3731,-0.7463 -0.5767,-0.9498 -0.1696,-0.2375 -0.3392,-0.4749 -0.5088,-0.7124 -0.0679,-0.0679 -0.1357,-0.1357 -0.1696,-0.2036 -0.1697,-0.3392 -0.7124,-0.7463 -1.0177,-0.9837 -0.2036,-0.1357 -0.4071,-0.2375 -0.5767,-0.3393 0.441,0 0.882,0.0679 1.289,0.2036 0.1357,0 0.3732,0 0.475,0.1018 0.2374,0.0339 0.4749,0.1017 0.7463,0.1696 0.5088,0.2035 1.0177,0.407 1.5604,0.6106 0.3732,0.1696 0.7464,0.3731 1.1534,0.5767 0.3393,0.2035 0.6785,0.4071 1.0177,0.6445 0.2714,0.2036 0.5428,0.4071 0.8481,0.6446 0.1018,0.2035 0.4749,0.3392 0.5767,0.5427 0.0678,0.0679 0.1696,0.1696 0.2714,0.2714 0.3053,0.1357 0.5767,0.7803 0.882,0.9159 0.1357,0.2375 0.5088,0.5428 0.5767,0.7803 0.1696,0.2714 0.3731,0.5427 0.5767,0.8141 0.1017,0.2036 0.4071,0.7124 0.4071,0.9499 0.1357,0.1357 0.1017,0.9159 0.1017,1.1194 -0.1357,0.475 -0.2374,0.9499 -0.3392,1.4248 -0.0339,0.0339 -0.0339,0.1018 -0.0339,0.1696 -0.2375,0.475 -0.475,0.9499 -0.7124,1.4248 -0.4071,0.5428 -0.8142,1.0856 -1.1873,1.6283 -0.1018,0 -0.7803,0.8142 -0.8142,0.9159 -0.0678,0.034 -0.1018,0.0679 -0.1357,0.1018 -0.4071,0.4749 -1.1194,1.1534 -1.6283,1.5266 -0.3392,0.2374 -0.6445,0.5088 -0.9498,0.7802 0,-0.1696 0.0339,-0.3053 0.0678,-0.441 0.0339,-0.882 0.0679,-1.764 0.1018,-2.6121 z"
         class="fil1"
         id="_272123120" />
      <path
         style="fill:#990000"
         inkscape:connector-curvature="0"
         d="m 222.518,142.015 c 0,-0.1018 0,-0.2035 0,-0.3053 0,0.1018 0,0.2035 0.0339,0.3053 -0.0339,0 -0.0339,0 -0.0339,0 z"
         class="fil1"
         id="_272123048" />
      <path
         style="fill:#990000"
         inkscape:connector-curvature="0"
         d="m 222.043,138.249 c -1.1534,-0.9159 -2.5782,-1.6622 -3.8673,-2.4085 -0.2374,-0.1357 -0.4749,-0.2375 -0.6785,-0.3392 -0.2374,-0.1018 -0.4749,-0.2036 -0.7123,-0.3054 -0.475,-0.2035 -0.9499,-0.407 -1.3909,-0.6106 -0.7802,-0.2714 -1.5605,-0.5088 -2.3068,-0.7463 -0.0678,-0.0339 -0.1017,-0.0339 -0.1357,-0.0339 -0.2374,-0.0678 -0.4749,-0.1357 -0.6784,-0.1696 -0.1696,-0.0339 -0.3053,-0.0679 -0.441,-0.0679 -0.1696,-0.1696 -0.7124,-0.0339 -0.8481,-0.1696 -0.2035,-0.0339 -0.4071,-0.0678 -0.6106,-0.0678 -0.7124,0 -1.4926,-0.1357 -2.205,0 -0.5428,0 -1.0856,0.1696 -1.5605,0.3392 -0.3053,0 -0.7463,0.3053 -1.0177,0.4749 0.2036,-0.2714 0.4071,-0.5427 0.6106,-0.7802 0.1357,-0.1357 0.475,-0.6445 0.6785,-0.7463 0.1018,-0.1357 0.2375,-0.2714 0.3732,-0.4071 0.1017,-0.1018 0.2035,-0.2035 0.3392,-0.2714 0.1357,-0.1357 0.2714,-0.2714 0.4071,-0.3731 0.1017,-0.1018 0.2035,-0.1696 0.3053,-0.2375 0.3392,-0.2375 0.6784,-0.4749 1.0516,-0.7124 0.8141,-0.441 1.6961,-0.9159 2.5781,-1.2212 0.3054,-0.1018 0.6446,-0.2036 0.9838,-0.3053 0.5767,-0.1357 1.1873,-0.2375 1.7979,-0.3393 0.2375,-0.0339 0.475,-0.0678 0.7124,-0.0678 0.4071,0 0.8142,0 1.2552,0 0.2714,0.0678 0.5767,0.1696 0.882,0.2714 0.2714,0.1357 0.882,0.441 1.0177,0.7463 0.2375,0 0.5088,0.6785 0.6785,0.6785 0.1696,0.2374 0.3392,0.4749 0.5088,0.7123 0.2035,0.4071 0.441,0.8142 0.6785,1.2213 0.407,1.0516 0.848,2.1032 1.0855,3.2227 0.1018,0.1018 0.2714,0.9838 0.2714,1.1534 0.0678,0.3731 0.1357,0.7463 0.2035,1.1194 0,0.1357 0,0.2714 0.034,0.441 z"
         class="fil1"
         id="_272122976" />
      <path
         style="fill:#990000"
         inkscape:connector-curvature="0"
         d="m 208.949,133.5 c 0.1018,0 0.2035,0 0.3392,0 -0.1357,0 -0.2374,0 -0.3392,0.0339 0,-0.0339 0,-0.0339 0,-0.0339 z"
         class="fil1"
         id="_272122904" />
    </g>
  </g>
</svg>
