<?xml version="1.0" encoding="UTF-8" standalone="no"?>
<!-- Creator: CorelDRAW -->

<svg
   xmlns:dc="http://purl.org/dc/elements/1.1/"
   xmlns:cc="http://creativecommons.org/ns#"
   xmlns:rdf="http://www.w3.org/1999/02/22-rdf-syntax-ns#"
   xmlns:svg="http://www.w3.org/2000/svg"
   xmlns="http://www.w3.org/2000/svg"
   xmlns:sodipodi="http://sodipodi.sourceforge.net/DTD/sodipodi-0.dtd"
   xmlns:inkscape="http://www.inkscape.org/namespaces/inkscape"
   xml:space="preserve"
   width="154.55873mm"
   height="163.3187mm"
   style="clip-rule:evenodd;fill-rule:evenodd;image-rendering:optimizeQuality;shape-rendering:geometricPrecision;text-rendering:geometricPrecision"
   viewBox="0 0 154.55873 163.3187"
   id="svg2"
   version="1.1"
   inkscape:version="0.91 r13725"
   sodipodi:docname="logo_m.svg"><metadata
     id="metadata20"><rdf:RDF><cc:Work
         rdf:about=""><dc:format>image/svg+xml</dc:format><dc:type
           rdf:resource="http://purl.org/dc/dcmitype/StillImage" /><dc:title></dc:title></cc:Work></rdf:RDF></metadata><sodipodi:namedview
     pagecolor="#ffffff"
     bordercolor="#666666"
     borderopacity="1"
     objecttolerance="10"
     gridtolerance="10"
     guidetolerance="10"
     inkscape:pageopacity="0"
     inkscape:pageshadow="2"
     inkscape:window-width="1920"
     inkscape:window-height="1001"
     id="namedview18"
     showgrid="false"
     fit-margin-top="0"
     fit-margin-left="0"
     fit-margin-right="0"
     fit-margin-bottom="0"
     inkscape:zoom="0.68"
     inkscape:cx="260.89478"
     inkscape:cy="236.98169"
     inkscape:window-x="-9"
     inkscape:window-y="-9"
     inkscape:window-maximized="1"
     inkscape:current-layer="svg2" /><defs
     id="defs4"><style
       type="text/css"
       id="style6"><![CDATA[
    .fil0 {fill:#990000}
   ]]></style></defs><g
     id="Слой_x0020_1"
     transform="translate(-28.8795,-52.0628)"
     inkscape:export-filename="C:\Users\user\Desktop\Слой_x0020_1.png"
     inkscape:export-xdpi="90"
     inkscape:export-ydpi="90"><metadata
       id="CorelCorpID_0Corel-Layer" /><g
       id="_271379672"><path
         id="_271380128"
         class="fil0"
         d="m 153.512,186.942 c 0.8364,0 1.6729,0 2.5093,0 2.5094,-0.2092 5.0188,-0.4183 7.5281,-0.6274 1.4638,-0.4182 2.9276,-0.8364 4.3914,-1.0455 1.673,-0.8365 3.555,-1.4638 5.437,-2.0912 0.8365,-0.6273 1.882,-1.2547 2.9276,-1.6729 -0.4182,0.6273 -0.8364,1.2547 -1.2547,2.0911 -0.6273,0 -2.3002,2.7185 -2.5093,3.1367 -1.673,0.8365 -3.9732,4.1823 -5.2279,5.437 -1.2547,0.8365 -4.3914,3.3458 -5.0187,4.6005 -3.555,2.3003 -7.1099,4.8097 -10.4557,7.319 -1.673,0.8365 -3.3459,1.6729 -5.0188,2.7185 -5.437,2.0912 -11.9195,5.2279 -17.7747,6.2734 -0.4182,0 -0.8365,0.2092 -1.2547,0.4183 -1.4638,0.2091 -2.9276,0.4182 -4.3914,0.8364 -1.4638,0.2091 -2.9276,0.4183 -4.1823,0.6274 -3.3458,0 -6.6916,0.2091 -9.8283,0.4182 -1.6729,-0.4182 -3.3459,-0.8365 -4.8097,-1.0456 -1.4638,-0.6273 -2.7184,-1.2547 -3.9731,-1.882 -1.4638,-1.2547 -2.9276,-2.5094 -4.3914,-3.5549 -1.0456,0 -4.8097,-5.2279 -5.0188,-5.6461 -0.8364,0 -4.8096,-7.9464 -5.8552,-9.6193 -0.6273,-1.4638 -1.2546,-2.7185 -1.882,-3.9732 -0.6273,-2.7184 -3.3458,-7.1098 -3.3458,-9.8283 -0.2091,-0.2091 -0.4182,-0.4182 -0.4182,-0.6274 -0.2092,-0.8364 -0.4183,-1.6729 -0.6274,-2.3002 -0.6273,-3.3458 -2.0911,-6.9008 -2.3002,-10.0375 -0.4183,-2.7185 -1.4638,-5.6461 -1.4638,-8.5737 -0.2092,0 -0.2092,0 -0.2092,0 -0.2091,-0.6273 -0.2091,-1.2547 -0.2091,-1.882 3.9732,2.7185 7.9464,5.437 12.1286,8.1554 0.6274,0.4183 1.2547,0.8365 2.0912,1.2547 2.0911,1.0456 4.1823,2.0912 6.2734,3.3459 0,1.0455 10.874,4.8096 10.874,5.646 1.6729,0.6274 3.3458,1.2547 5.2278,2.0912 7.7372,3.1367 15.6836,6.0643 23.839,7.7372 0.8365,0.2091 1.6729,0.4182 2.5094,0.6274 3.3458,0.4182 6.9008,0.8364 10.4557,1.4637 1.6729,0 3.3458,0 5.2279,0.2092 z"
         inkscape:connector-curvature="0"
         style="fill:#990000" /><path
         id="_271380056"
         class="fil0"
         d="m 71.957,132.363 c 0,0.6273 0,1.2546 0,1.882 0,2.9276 0,5.8552 0.2091,8.7828 0,1.2547 0.2092,2.5094 0.4183,3.764 0.2091,2.7185 0.4182,5.437 0.6273,8.3646 0.4182,2.7185 0.8365,5.437 1.2547,8.1555 0.6273,0.6273 0.2091,3.764 1.0456,4.6005 0,0.6273 0.8364,6.2734 1.6729,7.1099 1.0456,5.2278 3.3458,10.2466 5.0187,15.2653 0.6274,1.2547 4.3914,9.4101 5.0188,9.4101 0,0.2091 3.764,6.4826 4.6005,6.4826 0,0.8364 3.5549,4.1823 4.3914,4.6005 0,0.8364 4.8096,3.5549 5.8552,3.9732 -6.4826,0 -14.8471,-2.7185 -21.1206,-4.8097 -4.8096,-1.882 -10.6648,-4.6005 -14.8471,-7.7372 -0.2091,0 -0.4182,0 -0.4182,0 -2.5094,-1.882 -5.0187,-3.7641 -7.319,-5.437 -0.6273,-1.4638 -3.3458,-2.5093 -3.9732,-3.764 -0.6273,-0.2091 -6.2734,-6.0643 -6.2734,-6.6917 -0.8364,-0.8364 -1.4638,-1.6729 -2.0911,-2.3002 -1.4638,-1.8821 -2.7185,-3.7641 -3.9732,-5.437 -1.0456,-1.882 -2.0911,-3.7641 -3.1367,-5.437 -0.2091,-0.6273 -0.4182,-1.0455 -0.4182,-1.4638 -0.6274,-0.8364 -1.673,-6.6916 -1.0456,-7.319 0,-2.7185 0.2091,-5.8552 1.4638,-8.3645 0.4182,-2.5094 2.0911,-5.0188 2.9276,-7.319 1.4638,-2.7185 3.1367,-5.437 4.8096,-7.9464 0,-0.2091 0.2091,-0.2091 0.4182,-0.2091 0.8365,-1.4638 1.6729,-2.7185 2.7185,-3.9732 1.4638,-1.882 2.9276,-3.764 4.6005,-5.4369 1.2547,-1.4638 2.5094,-2.9276 3.9732,-4.1823 1.0456,-1.0456 2.0911,-1.882 3.1367,-2.7185 1.4638,-1.4638 2.9276,-2.9276 4.6005,-4.1823 0,-0.2091 0.2091,-0.4182 0.4183,-0.6273 2.0911,-1.6729 4.1822,-3.3459 6.2734,-5.0188 -0.2091,1.2547 -0.2091,2.7185 -0.2091,4.1823 -0.2091,1.6729 -0.2091,3.555 -0.2091,5.437 -0.2092,2.7185 -0.4183,5.437 -0.4183,8.3646 z"
         inkscape:connector-curvature="0"
         style="fill:#990000" /><path
         id="_271379984"
         class="fil0"
         d="m 65.0563,81.7574 c 0,0 0,0 0,0.2091 0.6273,-0.2091 1.2546,-0.2091 2.0911,-0.2091 5.0187,0 10.4557,0.8365 15.2653,1.882 2.0912,0.4183 4.1823,0.8365 6.2735,1.2547 1.882,0.4183 3.9731,1.0456 6.0643,1.6729 0.4182,0 0.8364,0.2092 1.2547,0.4183 3.1367,1.0455 6.2734,2.3002 9.4101,3.5549 0.8365,0.2091 1.882,0.6274 2.9276,1.0456 -5.0187,2.3002 -9.8284,4.8096 -14.638,7.319 -2.5094,1.4638 -5.0187,2.9276 -7.5281,4.3914 -2.7185,1.6729 -5.2279,3.3458 -7.7372,5.0187 -0.2091,0 -0.2091,0.2091 -0.2091,0.4183 -1.2547,0.6273 -2.5094,1.4638 -3.555,2.3002 -1.0456,0.6273 -1.882,1.2547 -2.7185,2.0911 -2.3002,1.673 -4.3914,3.3459 -6.4825,5.2279 -0.6274,0.6273 -1.2547,1.2547 -1.882,1.882 -2.0912,1.6729 -4.1823,3.555 -6.0644,5.437 -1.0455,1.0456 -2.0911,2.0911 -2.9276,3.1367 -0.8364,0.8365 -1.6729,1.882 -2.5093,2.9276 -0.8365,0.4182 -3.7641,3.7641 -3.7641,4.6005 -1.0455,0 -4.8096,6.9008 -5.4369,7.5281 -1.673,3.1368 -3.3459,6.4826 -4.8097,9.8284 -0.6273,1.4638 -1.0455,3.1367 -1.4638,4.8096 -0.2091,1.2547 -0.4182,2.7185 -0.6273,4.1823 -0.2091,1.2547 -0.2091,2.7185 -0.2091,4.1823 -2.5094,-5.8552 -4.8097,-12.3377 -5.6461,-18.6112 -0.8365,-1.6729 -1.0456,-5.0187 -1.0456,-6.6916 -0.2091,-4.8096 -0.2091,-9.4102 -0.2091,-14.0107 0,-0.8364 0.2091,-1.4638 0.4182,-2.0911 0.2091,-2.0912 0.4183,-4.1823 0.6274,-6.2734 0.8364,-3.3459 1.6729,-6.6917 2.5093,-10.0375 0.6274,-1.882 1.2547,-3.7641 1.8821,-5.437 0.4182,-1.0456 5.6461,-13.8015 7.5281,-13.8015 1.2547,-2.7185 8.3645,-6.4826 11.5013,-6.4826 0.2091,-0.2091 0.4182,-0.4182 0.6273,-0.4182 2.3003,-0.4182 4.6005,-0.8365 7.1099,-1.0456 1.2547,-0.2091 2.5094,-0.2091 3.9732,-0.2091 z"
         inkscape:connector-curvature="0"
         style="fill:#990000" /><path
         id="_271379912"
         class="fil0"
         d="m 148.702,134.245 c 0,0 0,0 0.2092,0 -0.2092,-0.6274 -0.2092,-1.2547 -0.2092,-1.882 0,-2.3003 0,-4.3914 0,-6.4826 -0.4182,-3.1367 -0.6273,-6.0643 -0.8364,-8.9919 0,-0.8365 0,-1.4638 0,-2.0911 -0.4182,-2.3003 -0.8365,-4.6005 -1.0456,-6.6917 0,-3.1367 -1.6729,-6.9008 -1.6729,-10.0375 -0.2091,-0.6273 -0.4182,-1.0455 -0.4182,-1.4638 -0.6274,-2.5093 -1.2547,-4.8096 -1.6729,-7.1099 -0.4183,-1.0455 -0.8365,-2.0911 -1.0456,-2.9276 -1.4638,-3.764 -2.9276,-7.5281 -4.1823,-11.2921 -0.6273,-1.0456 -1.0456,-2.0912 -1.4638,-3.1367 -1.4638,-1.4638 -2.3003,-4.6005 -3.5549,-5.8552 -1.0456,-1.4638 -2.0912,-2.9276 -3.1368,-4.3914 -0.4182,-0.4183 -0.8364,-0.8365 -1.0455,-1.2547 -1.0456,-2.0912 -4.3914,-4.6005 -6.2735,-6.0643 -1.2546,-0.8365 -2.5093,-1.4638 -3.5549,-2.0912 2.7185,0 5.437,0.4183 7.9463,1.2547 0.8365,0 2.3003,0 2.9276,0.6274 1.4638,0.2091 2.9276,0.6273 4.6006,1.0455 3.1367,1.2547 6.2734,2.5094 9.6192,3.7641 2.3003,1.0456 4.6005,2.3002 7.1099,3.5549 2.0911,1.2547 4.1823,2.5094 6.2734,3.9732 1.6729,1.2547 3.3458,2.5094 5.2279,3.9732 0.6273,1.2547 2.9276,2.0911 3.5549,3.3458 0.4182,0.4182 1.0456,1.0456 1.6729,1.6729 1.8821,0.8365 3.555,4.8096 5.437,5.6461 0.8365,1.4638 3.1367,3.3458 3.5549,4.8096 1.0456,1.6729 2.3003,3.3458 3.555,5.0188 0.6273,1.2546 2.5094,4.3914 2.5094,5.8552 0.8364,0.8364 0.6273,5.646 0.6273,6.9007 -0.8365,2.9276 -1.4638,5.8552 -2.0911,8.7828 -0.2092,0.2091 -0.2092,0.6274 -0.2092,1.0456 -1.4638,2.9276 -2.9276,5.8552 -4.3914,8.7828 -2.5093,3.3458 -5.0187,6.6916 -7.319,10.0375 -0.6273,0 -4.8096,5.0187 -5.0187,5.6461 -0.4182,0.2091 -0.6273,0.4182 -0.8365,0.6273 -2.5093,2.9276 -6.9007,7.1099 -10.0374,9.4101 -2.0912,1.4638 -3.9732,3.1367 -5.8552,4.8097 0,-1.0456 0.2091,-1.8821 0.4182,-2.7185 0.2091,-5.437 0.4182,-10.874 0.6273,-16.1018 z"
         inkscape:connector-curvature="0"
         style="fill:#990000" /><path
         id="_271379840"
         class="fil0"
         d="m 148.702,134.245 c 0,-0.6274 0,-1.2547 0,-1.882 0,0.6273 0,1.2546 0.2092,1.882 -0.2092,0 -0.2092,0 -0.2092,0 z"
         inkscape:connector-curvature="0"
         style="fill:#990000" /><path
         id="_271379768"
         class="fil0"
         d="m 145.774,111.033 c -7.1098,-5.6461 -15.8926,-10.2466 -23.839,-14.8471 -1.4638,-0.8365 -2.9276,-1.4638 -4.1823,-2.0911 -1.4638,-0.6274 -2.9276,-1.2547 -4.3914,-1.8821 -2.9276,-1.2547 -5.8552,-2.5093 -8.5736,-3.764 C 99.978,86.7758 95.1684,85.312 90.5679,83.8482 90.1497,83.639 89.9405,83.639 89.7314,83.639 c -1.4638,-0.4182 -2.9276,-0.8364 -4.1823,-1.0455 -1.0455,-0.2091 -1.882,-0.4183 -2.7184,-0.4183 -1.0456,-1.0455 -4.3914,-0.2091 -5.2279,-1.0455 -1.2547,-0.2091 -2.5094,-0.4183 -3.764,-0.4183 -4.3914,0 -9.2011,-0.8364 -13.5925,0 -3.3458,0 -6.6916,1.0456 -9.6192,2.0912 -1.8821,0 -4.6005,1.882 -6.2734,2.9276 1.2546,-1.6729 2.5093,-3.3458 3.764,-4.8096 0.8365,-0.8365 2.9276,-3.9732 4.1823,-4.6006 0.6273,-0.8364 1.4638,-1.6729 2.3002,-2.5093 0.6274,-0.6274 1.2547,-1.2547 2.0912,-1.6729 0.8364,-0.8365 1.6729,-1.6729 2.5094,-2.3003 0.6273,-0.6273 1.2546,-1.0456 1.882,-1.4638 2.0911,-1.4638 4.1823,-2.9276 6.4825,-4.3914 5.0188,-2.7185 10.4557,-5.6461 15.8927,-7.5281 1.882,-0.6273 3.9732,-1.2547 6.0643,-1.882 3.555,-0.8365 7.319,-1.4638 11.0831,-2.0912 1.4638,-0.2091 2.9276,-0.4182 4.3914,-0.4182 2.5093,0 5.0187,0 7.7372,0 1.6729,0.4182 3.5549,1.0456 5.437,1.6729 1.6729,0.8365 5.4369,2.7185 6.2734,4.6005 1.4638,0 3.1367,4.1823 4.1823,4.1823 1.0455,1.4638 2.0911,2.9276 3.1367,4.3914 1.2547,2.5094 2.7185,5.0188 4.1823,7.5281 2.5093,6.4826 5.2278,12.9651 6.6916,19.8659 0.6274,0.6273 1.6729,6.0643 1.6729,7.1099 0.4183,2.3002 0.8365,4.6005 1.2547,6.9007 0,0.8365 0,1.6729 0.2091,2.7185 z"
         inkscape:connector-curvature="0"
         style="fill:#990000" /><path
         id="_271379696"
         class="fil0"
         d="m 65.0563,81.7574 c 0.6273,0 1.2546,0 2.0911,0 -0.8365,0 -1.4638,0 -2.0911,0.2091 0,-0.2091 0,-0.2091 0,-0.2091 z"
         inkscape:connector-curvature="0"
         style="fill:#990000" /></g></g></svg>